# xmcd
#
# Track frame offsets: 
#        150
#        24815
#        43703
#        72367
#        92720
#        106842
#        124137
#        143179
#        160177
#        179795
#        206159
#        226116
#        245450
#
# Disc length: 3560 seconds
#
# Revision: 0
# Processed by: cddbd v1.5.1PL0 Copyright (c) Steve Scherf et al.
# Submitted via: ExactAudioCopy v0.95b2
#
DISCID=b00de60d
DTITLE=Frank Duval - Best2
DYEAR=1900
DGENRE=
TTITLE0=Give Me Your Love
TTITLE1=Life Will Go On
TTITLE2=Lonesome Ways
TTITLE3=Todesengel
TTITLE4=Me To You
TTITLE5=Love
TTITLE6=Tears
TTITLE7=Face To The Wind
TTITLE8=Avedana
TTITLE9=Galaxis Zena
TTITLE10=Angel By My Side
TTITLE11=Sky Train
TTITLE12=It Was Love
EXTD=
EXTT0=
EXTT1=
EXTT2=
EXTT3=
EXTT4=
EXTT5=
EXTT6=
EXTT7=
EXTT8=
EXTT9=
EXTT10=
EXTT11=
EXTT12=
PLAYORDER=
